<svg xmlns="http://www.w3.org/2000/svg" version="1.1" xmlns:xlink="http://www.w3.org/1999/xlink" xmlns:svgjs="http://svgjs.dev/svgjs" width="1440" height="560" preserveAspectRatio="none" viewBox="0 0 1440 560"><g mask="url(&quot;#SvgjsMask1074&quot;)" fill="none"><rect width="1440" height="560" x="0" y="0" fill="rgba(0, 108, 255, 1)"></rect><path d="M0,334.78C63.79,328.637,121.687,306.345,180.462,280.804C250.255,250.475,333.831,235.134,375.632,171.545C418.833,105.828,424.189,17.815,403.159,-57.966C383.114,-130.196,314.5,-173.345,264.437,-229.136C215.388,-283.797,182.615,-361.257,112.221,-382.19C41.79,-403.134,-28.963,-359.394,-99.015,-337.216C-167.497,-315.535,-239.506,-301.822,-293.012,-253.896C-350.603,-202.312,-407.411,-136.19,-409.726,-58.91C-412.01,17.327,-341.301,72.229,-304.786,139.191C-271.395,200.423,-262.969,280.185,-204.272,317.853C-145.581,355.516,-69.415,341.464,0,334.78" fill="#0067f2"></path><path d="M1440 910.63C1504.709 905.9259999999999 1553.794 856.781 1610.687 825.595 1672.596 791.659 1755.997 781.799 1788.94 719.356 1821.976 656.737 1794.475 580.076 1776.316 511.645 1759.8310000000001 449.524 1723.31 398.509 1689.325 343.959 1648.631 278.641 1626.038 194.99900000000002 1557.382 160.23200000000003 1485.915 124.041 1395.968 127.31 1321.937 157.916 1250.626 187.39800000000002 1216.946 264.629 1165.579 322.21299999999997 1113.3020000000001 380.818 1040.466 424.161 1017.4580000000001 499.248 992.95 579.229 989.779 674.821 1036.209 744.405 1081.81 812.746 1176.612 820.351 1252.584 851.626 1314.4 877.073 1373.327 915.477 1440 910.63" fill="#0d73ff"></path></g><defs><mask id="SvgjsMask1074"><rect width="1440" height="560" fill="#ffffff"></rect></mask></defs></svg>